GREETZ: UnDeaD - BadGirl2k9 - virusofsaten - foxyb - WICCYWOLF - lizzymwah1

VISIT http://www.seedboxworld.biz/ for all ur seedbox needs!

RELEASE NAME: Resident Evil Afterlife 2010 TS X264 - SDTeam
RELEASED BY: UnDeaD & BadGirl2k9
SIZE: 390 MB

LANGUAGE: English
IMDb: http://www.imdb.com/title/tt1220634/

PLOT: In a world ravaged by a virus infection, turning 
its victims into the Undead, Alice (Jovovich), continues 
on her journey to find survivors and lead them to safety. 
Her deadly battle with the Umbrella Corporation reaches new 
heights, but Alice gets some unexpected help from an old friend. 
A new lead that promises a safe haven from the Undead takes them 
to Los Angeles, but when they arrive the city is overrun by thousands 
of Undead - and Alice and her comrades are about to step into a 
deadly trap.

COVER IMAGE: http://bayimg.com/FAopkAAco
SCREENS: 
http://i658.photobucket.com/albums/uu309/BadGirl2k9/screens/vlcsnap-2010-09-12-21h38m08s87.png 
http://i658.photobucket.com/albums/uu309/BadGirl2k9/screens/vlcsnap-2010-09-12-21h38m26s13.png 
http://i658.photobucket.com/albums/uu309/BadGirl2k9/screens/vlcsnap-2010-09-12-21h38m34s97.png 
http://i658.photobucket.com/albums/uu309/BadGirl2k9/screens/vlcsnap-2010-09-12-21h38m46s0.png 
http://i658.photobucket.com/albums/uu309/BadGirl2k9/screens/vlcsnap-2010-09-12-21h38m52s16.png 
http://i658.photobucket.com/albums/uu309/BadGirl2k9/screens/vlcsnap-2010-09-12-21h39m00s0.png

General
Format                           : MPEG-4
Format profile                   : Base Media
Codec ID                         : isom
File size                        : 391 MiB
Duration                         : 1h 25mn
Overall bit rate                 : 636 Kbps
Encoded date                     : UTC 2010-09-11 20:08:48
Tagged date                      : UTC 2010-09-11 20:08:48

Video
ID                               : 1
Format                           : AVC
Format/Info                      : Advanced Video Codec
Format profile                   : High@L2.1
Format settings, CABAC           : Yes
Format settings, ReFrames        : 4 frames
Codec ID                         : avc1
Codec ID/Info                    : Advanced Video Coding
Duration                         : 1h 25mn
Duration_LastFrame               : 50ms
Bit rate mode                    : Variable
Bit rate                         : 505 Kbps
Nominal bit rate                 : 500 Kbps
Maximum bit rate                 : 4 401 Kbps
Width                            : 624 pixels
Height                           : 256 pixels
Display aspect ratio             : 2.40:1
Frame rate mode                  : Constant
Frame rate                       : 20.000 fps
Resolution                       : 8 bits
Colorimetry                      : 4:2:0
Scan type                        : Progressive
Bits/(Pixel*Frame)               : 0.158
Stream size                      : 310 MiB (79%)
Title                            : Imported with GPAC 0.4.6-DEV (internal rev. 5)
Writing library                  : x264 core 102 r1666 d058f37

Audio
ID                               : 2
Format                           : MPEG Audio
Format version                   : Version 1
Format profile                   : Layer 3
Codec ID                         : 6B
Duration                         : 1h 25mn
Bit rate mode                    : Constant
Bit rate                         : 128 Kbps
Maximum bit rate                 : 134 Kbps
Channel(s)                       : 2 channels
Sampling rate                    : 44.1 KHz
Stream size                      : 78.5 MiB (20%)
Title                            : Imported with GPAC 0.4.6-DEV (internal rev. 5)

GROUP NOTE: Big thanks to seedboxworld.biz for the seedbox!
